<svg width="24" height="24" viewBox="0 0 24 24" fill="none" xmlns="http://www.w3.org/2000/svg">
<path fill-rule="evenodd" clip-rule="evenodd" d="M16.3891 0C16.5985 1.45774 16.0196 2.88585 15.256 3.89625C14.439 4.98003 13.0308 5.81827 11.6664 5.77452C11.4173 4.37887 12.055 2.94089 12.831 1.97423C13.6822 0.907385 15.141 0.0889039 16.3891 0ZM20.4878 20.5185C21.1912 19.4135 21.454 18.8561 22 17.6086C18.0286 16.0606 17.3922 10.2733 21.3226 8.05215C20.1238 6.51115 18.4391 5.61788 16.8489 5.61788C15.7031 5.61788 14.918 5.92437 14.2043 6.203C13.6096 6.43519 13.0644 6.64803 12.4012 6.64803C11.6847 6.64803 11.0501 6.41482 10.3856 6.17063C9.65552 5.9023 8.8893 5.6207 7.93853 5.6207C6.15399 5.6207 4.25449 6.73835 3.0502 8.64908C1.35735 11.3402 1.64611 16.3992 4.39134 20.709C5.37257 22.2514 6.6836 23.9843 8.39835 23.9998C9.10986 24.0071 9.58333 23.7894 10.0957 23.5539C10.6821 23.2842 11.3195 22.9912 12.4231 22.9852C13.5333 22.9784 14.1606 23.275 14.7393 23.5485C15.2385 23.7846 15.7014 24.0034 16.4069 23.9956C18.123 23.9815 19.5066 22.0609 20.4878 20.5185Z" fill="#1C1C1C"/>
</svg>
