<svg width="24" height="24" viewBox="0 0 24 24" fill="none" xmlns="http://www.w3.org/2000/svg">
<path d="M17.2244 15.7056C20.0056 14.1508 22.1297 12.9633 22.3229 12.8551C22.8993 12.5329 23.5031 11.7107 22.3229 11.0535C21.9436 10.8418 19.8766 9.69071 17.2211 8.21106L13.5688 11.9699L17.2244 15.7056V15.7056Z" fill="#FFE300"/>
<path d="M13.5686 11.9699L1.88708 23.9918C2.15089 24.026 2.46818 23.9546 2.83313 23.7506C3.5887 23.3283 11.7029 18.7919 17.2244 15.7052L13.5686 11.9699V11.9699Z" fill="#FF4E54"/>
<path d="M13.5687 11.9699L17.221 8.21106C17.221 8.21106 3.64589 0.646706 2.8332 0.193874C2.52082 0.0197648 2.18025 -0.0409968 1.87878 0.027569L13.5687 11.9699V11.9699Z" fill="#00F085"/>
<path d="M13.5686 11.9699L1.87855 0.0277557C1.3957 0.137758 1 0.564576 1 1.42249V22.559C1 23.3669 1.31129 23.9351 1.88692 23.9918L13.5686 11.9699V11.9699Z" fill="#00E0FF"/>
</svg>
