<svg width="16" height="16" viewBox="0 0 16 16" fill="none" xmlns="http://www.w3.org/2000/svg">
<path fill-rule="evenodd" clip-rule="evenodd" d="M6.87307 1.50001H9.12737C9.27163 1.49992 9.39731 1.49984 9.51599 1.51879C9.98485 1.59366 10.3906 1.8861 10.6099 2.30723C10.6654 2.41382 10.7051 2.53307 10.7506 2.66996L10.825 2.89323C10.8376 2.93102 10.8412 2.94172 10.8443 2.95014C10.961 3.27289 11.2637 3.49106 11.6068 3.49976C11.6158 3.49999 11.6269 3.50003 11.6669 3.50003H13.6669C13.943 3.50003 14.1669 3.72388 14.1669 4.00003C14.1669 4.27617 13.943 4.50003 13.6669 4.50003H2.3335C2.05735 4.50003 1.8335 4.27617 1.8335 4.00003C1.8335 3.72388 2.05735 3.50003 2.3335 3.50003H4.33355C4.37358 3.50003 4.38463 3.49999 4.39365 3.49976C4.73675 3.49106 5.03943 3.2729 5.15618 2.95016C5.15925 2.94168 5.16278 2.93121 5.17544 2.89323L5.24984 2.66998C5.29537 2.5331 5.33505 2.41382 5.39055 2.30723C5.60985 1.8861 6.01558 1.59366 6.48445 1.51879C6.60313 1.49984 6.72881 1.49992 6.87307 1.50001ZM6.0056 3.50003C6.03994 3.43268 6.07037 3.36269 6.09655 3.29032C6.1045 3.26834 6.11229 3.24495 6.12231 3.21489L6.18885 3.01528C6.24963 2.83294 6.26362 2.79575 6.2775 2.76909C6.3506 2.62872 6.48585 2.53124 6.64213 2.50628C6.67182 2.50154 6.71152 2.50003 6.90373 2.50003H9.09671C9.28892 2.50003 9.32862 2.50154 9.3583 2.50628C9.51459 2.53124 9.64984 2.62872 9.72293 2.76909C9.73682 2.79575 9.75081 2.83294 9.81159 3.01528L9.87809 3.21477L9.9039 3.29033C9.93007 3.3627 9.9605 3.43268 9.99484 3.50003H6.0056Z" fill="url(#paint0_linear_1335_79972)"/>
<path d="M3.94356 5.63343C3.92519 5.3579 3.68693 5.14943 3.4114 5.1678C3.13587 5.18617 2.9274 5.42442 2.94577 5.69995L3.25474 10.3344C3.31173 11.1896 3.35777 11.8804 3.46576 12.4224C3.57802 12.986 3.76897 13.4567 4.16336 13.8256C4.55776 14.1946 5.04013 14.3538 5.60989 14.4284C6.15791 14.5 6.85019 14.5 7.70723 14.5H8.29316C9.1502 14.5 9.84253 14.5 10.3905 14.4284C10.9603 14.3538 11.4427 14.1946 11.8371 13.8256C12.2315 13.4567 12.4224 12.986 12.5347 12.4224C12.6427 11.8804 12.6887 11.1896 12.7457 10.3345L13.0547 5.69995C13.073 5.42442 12.8646 5.18617 12.589 5.1678C12.3135 5.14943 12.0753 5.3579 12.0569 5.63343L11.7503 10.2328C11.6904 11.1314 11.6477 11.7566 11.554 12.227C11.4631 12.6833 11.3362 12.9249 11.1539 13.0954C10.9716 13.2659 10.7222 13.3765 10.2608 13.4368C9.78524 13.499 9.15857 13.5 8.25801 13.5H7.74243C6.84187 13.5 6.2152 13.499 5.7396 13.4368C5.27826 13.3765 5.02882 13.2659 4.84655 13.0954C4.66427 12.9249 4.53738 12.6833 4.44648 12.227C4.35277 11.7566 4.31009 11.1314 4.25018 10.2328L3.94356 5.63343Z" fill="url(#paint1_linear_1335_79972)"/>
<path d="M6.28381 6.83584C6.55858 6.80836 6.8036 7.00883 6.83108 7.28361L7.16441 10.6169C7.19189 10.8917 6.99142 11.1367 6.71664 11.1642C6.44187 11.1917 6.19685 10.9912 6.16937 10.7164L5.83604 7.38311C5.80856 7.10834 6.00903 6.86332 6.28381 6.83584Z" fill="url(#paint2_linear_1335_79972)"/>
<path d="M9.71664 6.83584C9.99142 6.86332 10.1919 7.10834 10.1644 7.38311L9.83108 10.7164C9.8036 10.9912 9.55858 11.1917 9.28381 11.1642C9.00903 11.1367 8.80856 10.8917 8.83604 10.6169L9.16937 7.28361C9.19685 7.00883 9.44187 6.80836 9.71664 6.83584Z" fill="url(#paint3_linear_1335_79972)"/>
<defs>
<linearGradient id="paint0_linear_1335_79972" x1="8.00019" y1="1.5" x2="8.00019" y2="14.5" gradientUnits="userSpaceOnUse">
<stop stop-color="#B48329"/>
<stop offset="1" stop-color="#D9A441"/>
</linearGradient>
<linearGradient id="paint1_linear_1335_79972" x1="8.00019" y1="1.5" x2="8.00019" y2="14.5" gradientUnits="userSpaceOnUse">
<stop stop-color="#B48329"/>
<stop offset="1" stop-color="#D9A441"/>
</linearGradient>
<linearGradient id="paint2_linear_1335_79972" x1="8.00019" y1="1.5" x2="8.00019" y2="14.5" gradientUnits="userSpaceOnUse">
<stop stop-color="#B48329"/>
<stop offset="1" stop-color="#D9A441"/>
</linearGradient>
<linearGradient id="paint3_linear_1335_79972" x1="8.00019" y1="1.5" x2="8.00019" y2="14.5" gradientUnits="userSpaceOnUse">
<stop stop-color="#B48329"/>
<stop offset="1" stop-color="#D9A441"/>
</linearGradient>
</defs>
</svg>
